<svg id="artwork" xmlns="http://www.w3.org/2000/svg" viewBox="0 0 1024 1024"><defs><style>.cls-2{fill:#fff}.cls-4{fill:#ffd900}.cls-7{fill:#e5c10e}.cls-8{fill:#5d5e61}.cls-9{fill:#0072d8}</style></defs><path d="M646.47 576.11zM567 479.69c77 .36 74.88 50.33 78.21 86.16-3.32-35.85-1.21-85.8-78.21-86.16zm37.33-180.51l.61.08z" fill="none"/><path class="cls-2" d="M697 569.11c0 .29 0 .06-.13-.64-11.88 5.25-25.83 9.33-35.77 11.9-2.2.57-4.22 1.07-6 1.49l-2.41.56-1 .24-1.72.39c-1.22.27-1.9.4-1.9.4a67.59 67.59 0 01-1.57-7.34c-.21-1.29-.4-2.62-.57-4-.26-2-.48-4.13-.68-6.28C641.89 530 644 480.05 567 479.69q-6.91 0-14.72.49-5.2.35-10.83 1a262.58 262.58 0 00-30.66 5.09q-5.6 1.25-10.79 2.73t-10 3.15C402.09 522.66 411.32 596 411.32 596c-15.74 0-47.71-17.5-75.54-34.84q-.11 32.28-1.07 65.91c-1.21 42-3.49 86-6.76 131.14a374.51 374.51 0 0098.29 54.14c90.2 33 105.42 84.39 105.42 84.39s130.55-90.46 184.52-181c-5.04-46.04-11.34-95.66-19.18-146.63zm-.13-.66z"/><path d="M329.74 392c45.46-46.25 122.3-99.26 234-96.22a358.16 358.16 0 0140.56 3.45l.61.08q16.47 2.36 33.82 6.36c0-.1 0-.1 0 0-84.38-223.08-309.18-283-411-298.95 15.4 31.84 38.82 83.08 46.84 105.06C302.49 188.25 320.92 282 329.74 392zm309.02-86.38z" fill="#ed1c24"/><path class="cls-4" d="M604.33 299.18a358.16 358.16 0 00-40.56-3.45c-111.73-3-188.57 50-234 96.22q6.36 79.1 6 169.24c27.83 17.34 59.8 34.84 75.54 34.84 0 0-9.22-73.37 78.71-103.87q4.79-1.67 10-3.15t10.79-2.78a262.58 262.58 0 0130.66-5.09q5.63-.61 10.83-1 7.8-.53 14.72-.49c77 .36 74.88 50.33 78.21 86.16.2 2.15.42 4.25.68 6.28.17 1.36.36 2.69.57 4a67.59 67.59 0 001.57 7.34s.68-.13 1.9-.4l1.72-.39 1-.24 2.41-.56c1.74-.42 3.76-.92 6-1.49 9.94-2.57 23.89-6.65 35.77-11.9-1.93-11-23-136.26-41.88-211.16-4.86-19.29-15.55-49.72-16.2-51.69q-17.35-4-33.82-6.36zm92.54 269.27c0 .22.07.44.1.66.03-.11-.04-.33-.1-.66zm-58.1-262.83z"/><path class="cls-4" d="M510.8 486.23q-5.61 1.29-10.8 2.77 5.2-1.47 10.8-2.77zM500 489q-5.19 1.49-10 3.15 4.82-1.65 10-3.15zm196.84 79.47c-11.88 5.25-25.83 9.33-35.77 11.9 9.93-2.57 23.93-6.65 35.77-11.9zm.16.64c0-.22-.06-.44-.1-.66.1.72.1.95.1.66zm-45.34 13.55l-1.72.39zm3.45-.8l-2.41.56zM411.32 596s-9.23-73.34 78.68-103.84C402.1 522.66 411.32 596 411.32 596zm140.97-115.82q7.8-.53 14.72-.49-6.91-.03-14.72.49zm52.65-180.92q16.47 2.36 33.82 6.36-17.35-4.02-33.82-6.36zm33.82 6.36s-.03-.1 0 0zm-74.99-9.89a358.16 358.16 0 0140.56 3.45 358.16 358.16 0 00-40.56-3.45z"/><path d="M335.78 561.19a926.161 926.161 0 01-21.86-14.08c-3.16-2.1-6.16-4.12-8.93-6v.3c.3 58-1.56 121.78-6.17 192A348.82 348.82 0 00328 758.24c3.27-45.12 5.55-89.14 6.76-131.14q.93-33.66 1.02-65.91z" fill="#d4eafc"/><path d="M301.15 424.8a359 359 0 0128.59-32.8c-8.82-109.91-27.25-203.7-55.19-280.26-8-22-31.44-73.22-46.84-105.06C196.05 1.69 176.26 1 176.26 1s103.43 83.43 124.89 423.8z" fill="#cc1b28"/><path class="cls-7" d="M329.74 392a359 359 0 00-28.59 32.85c2.27 35.93 3.62 74.74 3.84 116.61v-.3c2.77 1.88 5.77 3.9 8.93 6 2.11 1.4 4.3 2.84 6.55 4.31 4.86 3.17 10 6.46 15.31 9.77q.32-90.14-6.04-169.24z"/><path class="cls-8" d="M558.4 594.94a12.8 12.8 0 00-6.56-.81c-3.37.63-6.6 2-9.86 3.2-1.52.54-2.92 1.57-4.47 1.81q-10.89 1.71-21.84 3c-2.62.32-5.38 1-5.69 3.69a9.76 9.76 0 002 6.63c3.14 3.8 7.79 5.06 13 5.69 11.43-2.38 23.32-4.66 34.46-9.49a7.55 7.55 0 004.82-7.3c-.19-3.52-2.96-5.36-5.86-6.42z"/><path class="cls-9" d="M716.17 715.8c-54 90.51-184.51 181-184.51 181s-15.22-51.44-105.42-84.39a374.28 374.28 0 01-98.32-54.16q-.82 11.32-1.72 22.72c-3.14 39.58-7.09 80.59-11.78 122.37 1.22 1.06 2.4 2.15 3.52 3.27 30.52 30.58 21.48 45 35 46.9 167.53 23.71 244.72 35.6 302 35.29 16.81-.09 39.32-36.42 46.73-51 7-13.7 30.13-36.38 30.13-36.38-2.73-46.83-7.55-111.7-15.63-185.62z"/><circle class="cls-8" cx="435.38" cy="398.02" r="26.78"/><circle class="cls-2" cx="419.52" cy="388.81" r="7.75"/><circle class="cls-8" cx="593.35" cy="365.56" r="26.78"/><circle class="cls-2" cx="577.48" cy="356.34" r="7.75"/><path class="cls-7" d="M510.86 487.27a10.79 10.79 0 01-1.86-21.41 162.34 162.34 0 0117.64-1.81c25.51-1.69 38.84-3.85 39.28-31.26.15-9.81-3.4-13.68-6.09-15.74-12.18-9.32-40.58-4-49.57-1.44a10.79 10.79 0 01-6-20.73 138.15 138.15 0 0124.4-4.32c19.15-1.61 34 1.53 44.26 9.33 6.81 5.2 14.88 15.19 14.59 33.25-.78 48.56-36.08 50.9-59.44 52.44a147.47 147.47 0 00-15.25 1.52 10.54 10.54 0 01-1.96.17z"/><path class="cls-9" d="M702.88 609.15c4.33 30.74 8.09 60.72 11.37 89.51 11.77-21.61 27.66-40.49 38.81-52.41-17.91-14.77-36.56-27.95-50.18-37.1z"/><path class="cls-4" d="M845.4 984.47c-23.81-30.86-93.19-71.19-113.78-82.77-2.59 2.56-23.34 23.29-29.87 36.12a205.16 205.16 0 01-17.5 27.87c14.77 7.52 36.58 15.61 68.81 23.11 57.04 13.26 81.69 5.1 92.34-4.33z"/><path class="cls-7" d="M660.49 987.61c31.18 16.12 97.28 43.84 166.74 32.9 30.59-4.82 31.33-19 18.17-36-10.65 9.43-35.3 17.59-92.34 4.33-32.23-7.5-54-15.59-68.81-23.11-7.42 9.81-15.93 18.76-23.76 21.88z"/><path class="cls-4" d="M272.61 956.17c26.65-6.59 47.26-20.32 60.55-31.5A124.74 124.74 0 00318 906.6c-12.57-12.6-32.51-21-31.55-30-16.06 18.3-45.74 51.63-61 65.62a111.8 111.8 0 00-19 22.34c12.41 3.67 23.89 2.06 66.16-8.39z"/><path class="cls-7" d="M240.74 995.85c56.32-6.44 98.85-35.14 109.59-43-7.4-2.67-5.95-11.64-17.17-28.18-13.29 11.18-33.9 24.91-60.55 31.5-42.27 10.45-53.75 12.06-66.19 8.35-11.27 18.27-10.96 36.48 34.32 31.33z"/><path class="cls-4" d="M247.82 760.37c21.69-9.79 35.5-18.11 44.13-25a352.43 352.43 0 00-50.67-41.2c-21.93 25.7-44.76 55-60.74 82 15.66 1.02 37.46-2.35 67.28-15.8z"/><path class="cls-7" d="M295.54 778.52q1.5-18.76 2.72-36.95c-2.13-2.16-4.22-4.22-6.31-6.24-8.63 6.93-22.44 15.25-44.13 25-29.78 13.45-51.62 16.82-67.28 15.78-1.48 2.5-2.92 5-4.28 7.45-32.44 58.82 80.74 12.14 119.28-5.04z"/><path class="cls-4" d="M810.83 721.35q-1-4.59-2.56-9.76c-6-20.36-29.86-44.44-55.21-65.34-10 10.68-23.79 27-35 45.79 9.86 15.52 34.45 37.62 92.77 29.31z"/><path class="cls-7" d="M718.94 742c81.83 25.25 100.45 17.55 91.89-20.65-58.32 8.31-82.91-13.79-92.78-29.31-1.3 2.17-2.58 4.38-3.8 6.62 1.69 14.78 3.26 29.27 4.69 43.34z"/><path d="M328 758.24a350.47 350.47 0 01-29.13-24.8q3.69-56.33 5.12-107.22c-9.41 9.43-35.32 35.87-62.66 67.91 13.91 9.16 34.23 24.42 57 47.44q-4.35 63.93-11.85 135c-.88 8.27 15.59 16 28 26.77 4.69-41.78 8.64-82.79 11.78-122.37q.9-11.41 1.72-22.72z" fill="#046dba"/></svg>